<svg xmlns="http://www.w3.org/2000/svg" width="70" height="70" viewBox="0 0 70 70">
    <g fill="none" fill-rule="evenodd">
        <g fill="#00008F" fill-rule="nonzero">
            <g>
                <g>
                    <g>
                        <g>
                            <path d="M13.81 29.247c-1.614-.02-3.082.936-3.714 2.422-.632 1.486-.304 3.207.83 4.356 1.135 1.149 2.85 1.5 4.345.886 1.494-.613 2.47-2.068 2.47-3.683.012-2.184-1.747-3.965-3.93-3.981zm0 6.504c-1.024.02-1.96-.58-2.367-1.522-.406-.94-.203-2.034.514-2.766.718-.732 1.807-.958 2.756-.57.949.387 1.57 1.31 1.57 2.335 0 1.37-1.103 2.485-2.473 2.501v.022zM50.78 29.254c-1.672-.024-3.192.965-3.848 2.503-.656 1.537-.319 3.318.855 4.509 1.174 1.19 2.95 1.554 4.497.92 1.546-.635 2.556-2.14 2.557-3.812.012-2.258-1.804-4.1-4.062-4.12zm0 6.774c-1.082.024-2.07-.61-2.5-1.602-.431-.992-.218-2.146.538-2.92.757-.773 1.906-1.012 2.907-.603 1.002.408 1.657 1.382 1.657 2.464.008.698-.262 1.37-.75 1.87-.488.499-1.155.783-1.853.791z" transform="translate(-3408 -585) translate(2968 151) translate(375 394) translate(65 40) translate(.73 13.854)"/>
                            <path d="M66.194 29.663v-9.56c0-2.093-1.29-3.711-3.646-4.564l-9.844-3.479-7.007-7.211C41.387.809 38.267 0 34.628 0H17.61c-2.472 0-4.652 2.005-6.044 3.682l-7.022 8.466c-.184.203-.404.372-.65.496-.963.54-1.556 1.563-1.545 2.668v14.365c-1.193.54-1.849 1.839-1.575 3.12.273 1.28 1.403 2.198 2.712 2.203h2.29c.797 3.794 4.144 6.511 8.02 6.511 3.878 0 7.225-2.717 8.022-6.511H42.86c.627 3.887 3.982 6.745 7.92 6.745 3.937 0 7.292-2.858 7.918-6.745h6.366c1.303-.013 2.424-.928 2.696-2.202.273-1.275-.375-2.569-1.559-3.114l-.007-.021zm-1.459-9.56v1.094c-1.06-.184-2.03-.715-2.756-1.51-.804-1.03-1.428-2.188-1.845-3.427l1.94.686c1.757.612 2.661 1.684 2.661 3.157zM12.68 4.616c.977-1.182 2.917-3.158 4.922-3.158h17.026c3.369 0 6.096.73 10.048 4.434l7.095 7.306c.077.081.172.144.277.182l6.322 2.239c.5 1.808 1.34 3.503 2.479 4.995 1.006 1.123 2.378 1.854 3.872 2.063v6.73h-6.884c-1.397-2.601-4.112-4.224-7.065-4.224-2.954 0-5.668 1.623-7.066 4.224h-13.97v-13.3h18.032c.034.003.068.003.102 0 .104-.004.204-.043.284-.11.03-.014.06-.031.088-.05.036-.038.067-.08.094-.124.028-.032.052-.066.073-.102.003-.039.003-.078 0-.117.006-.053.006-.107 0-.16.003-.034.003-.068 0-.102-.004-.104-.043-.204-.109-.285-.014-.033-.032-.064-.051-.095l-6.774-7.816-.051-.051c-2.06-1.911-4.766-2.974-7.576-2.975H21.146c-1.381.007-2.692.61-3.595 1.655l-6.803 9.173v.073c-.026.041-.048.085-.066.131-.005.049-.005.097 0 .146v.131c-.005.049-.005.098 0 .146.011.043.026.084.044.124.048.08.107.154.175.219v.036l.095.051.08.044c.081.032.168.05.255.051h16.946v13.307H21.11c-1.38-2.762-4.203-4.507-7.291-4.507s-5.911 1.745-7.292 4.507h-2.72v-9.902c2.213-.189 3.95-1.975 4.076-4.192.042-1.202-.694-2.293-1.823-2.706l6.621-7.991zm17.055.955h4.113c2.432.002 4.775.918 6.562 2.566l5.746 6.512h-16.42V5.571zm-1.458 9.078H12.775l5.892-7.963c.628-.71 1.53-1.116 2.479-1.115h7.138l-.007 9.078zm-23.669-.73l.183-.109c1.042.044 1.633.598 1.633 1.502-.118 1.413-1.21 2.549-2.618 2.72v-2.72c-.01-.574.295-1.109.795-1.392h.007zM3.485 33.543c-.733 0-1.327-.594-1.327-1.327s.594-1.328 1.327-1.328h2.443c-.226.768-.341 1.563-.343 2.363v.292h-2.1zm10.325 6.562c-2.79.048-5.334-1.597-6.435-4.163-1.1-2.565-.542-5.541 1.415-7.532 1.957-1.991 4.924-2.601 7.507-1.544 2.584 1.057 4.272 3.571 4.273 6.363.028 3.764-2.996 6.84-6.76 6.876zm8.204-6.562v-.292c-.002-.8-.117-1.595-.343-2.363h21.415c-.257.812-.387 1.658-.386 2.509v.153l-20.686-.007zm28.765 6.562c-2.736.048-5.228-1.564-6.308-4.079-1.079-2.514-.53-5.432 1.389-7.382 1.918-1.95 4.826-2.547 7.358-1.51 2.532 1.039 4.185 3.505 4.182 6.241.024 3.684-2.937 6.694-6.62 6.73zm14.285-6.562h-6.22v-.153c0-.851-.13-1.698-.387-2.509h6.563c.733 0 1.327.594 1.327 1.327s-.594 1.327-1.327 1.327l.044.008z" transform="translate(-3408 -585) translate(2968 151) translate(375 394) translate(65 40) translate(.73 13.854)"/>
                            <path d="M34.49 18.47h-1.62c-.402 0-.728.326-.728.729 0 .403.326.73.729.73h1.619c.402 0 .729-.327.729-.73 0-.403-.327-.73-.73-.73z" transform="translate(-3408 -585) translate(2968 151) translate(375 394) translate(65 40) translate(.73 13.854)"/>
                        </g>
                    </g>
                </g>
            </g>
        </g>
    </g>
</svg>
