<svg xmlns="http://www.w3.org/2000/svg" width="96" height="96" viewBox="0 0 96 96">
    <g fill="none" fill-rule="evenodd">
        <g fill="#00008F" fill-rule="nonzero">
            <g>
                <g>
                    <g>
                        <path d="M78 13.4H60.67l-3.19-5.63c1.115-1.08 1.504-2.708.998-4.175-.505-1.468-1.814-2.51-3.358-2.675C52 .57 46.15 0 42 0c-4.15 0-10 .57-13.12.91-1.544.164-2.853 1.207-3.358 2.675-.506 1.467-.117 3.095.998 4.175l-3.19 5.64H6c-3.314 0-6 2.686-6 6V63c0 3.314 2.686 6 6 6h72c3.314 0 6-2.686 6-6V19.4c0-3.314-2.686-6-6-6zm-60.32 2h48.64V67H17.68V15.4zm-2 51.6h-4V15.4h4V67zm52.64-51.6h4V67h-4V15.4zM29.1 2.9C32.18 2.56 37.95 2 42 2c4.05 0 9.82.57 12.9.9 1.014.117 1.777.98 1.77 2 .013.587-.232 1.15-.67 1.54-.417.367-.967.545-1.52.49-3.62-.39-8.72-.85-12.48-.85s-8.86.46-12.48.85c-.553.055-1.103-.123-1.52-.49-.433-.386-.678-.94-.67-1.52-.017-1.028.748-1.902 1.77-2.02zm-.86 5.88c.35.106.714.163 1.08.17h.42c3.57-.38 8.6-.83 12.27-.83s8.7.45 12.27.83c.504.049 1.013.001 1.5-.14l2.61 4.62H25.63l2.61-4.65zM2 63V19.4c0-2.21 1.79-4 4-4h3.65V67H6c-2.21 0-4-1.79-4-4zm80 0c0 2.21-1.79 4-4 4h-3.65V15.4H78c2.21 0 4 1.79 4 4V63z" transform="translate(-1359.000000, -703.000000) translate(0.000000, 483.000000) translate(1359.000000, 220.000000) translate(6.000000, 14.000000)"/>
                        <path d="M41.79 37.55V25.36c0-.552-.448-1-1-1H26.32c-.552 0-1 .448-1 1v12.19c0 .552.448 1 1 1h14.47c.552 0 1-.448 1-1zm-2-1H27.32V26.36h12.47v10.19zM57.68 31.67H46.82c-.552 0-1 .448-1 1v6.09c0 .552.448 1 1 1h10.86c.265 0 .52-.105.707-.293.188-.187.293-.442.293-.707v-6.09c0-.265-.105-.52-.293-.707-.187-.188-.442-.293-.707-.293zm-1 6.09h-8.86v-4.09h8.85l.01 4.09zM45.62 43.85H34.76c-.552 0-1 .448-1 1v9.75c0 .552.448 1 1 1h10.86c.552 0 1-.448 1-1v-9.75c0-.552-.448-1-1-1zm-1 9.75h-8.86v-7.75h8.85l.01 7.75z" transform="translate(-1359.000000, -703.000000) translate(0.000000, 483.000000) translate(1359.000000, 220.000000) translate(6.000000, 14.000000)"/>
                    </g>
                </g>
            </g>
        </g>
    </g>
</svg>
